# xmcd
#
# Track frame offsets: 
#        150
#        12171
#        27285
#        39558
#        51587
#
# Disc length: 1033 seconds
#
# Revision: 0
# Processed by: cddbd v1.5.2PL0 Copyright (c) Steve Scherf et al.
# Submitted via: ExactAudioCopyFreeDBPlugin 1.0
#
DISCID=3a040705
DTITLE=Stephanie Struijk - Daar
DYEAR=2018
DGENRE=Pop
TTITLE0=Daar
TTITLE1=Ook Wel Gelukkig
TTITLE2=Elke Keer
TTITLE3=Als De Liefde Maar Blijft Winnen
TTITLE4=Bijna Thuis
EXTD=
EXTT0=
EXTT1=
EXTT2=
EXTT3=
EXTT4=
PLAYORDER=
